<?xml version="1.0" encoding="UTF-8"?>
<svg width="24px" height="24px" viewBox="0 0 24 24" version="1.1" xmlns="http://www.w3.org/2000/svg">
    <g stroke="none" stroke-width="1" fill="none" fill-rule="evenodd">
        <path d="M20.1,6.9c0.2,1-0.1,2.2-0.5,3.2c-1.2,3.3-4.1,4.5-8.2,4.5h-0.7c-0.6,0-1,0.4-1.1,1l0,0l-0.9,5.4l-0.3,1.4 c-0.1,0.3,0.2,0.6,0.5,0.6h3.5c0.4,0,0.8-0.3,0.9-0.7v-0.2l0.7-4.4v-0.2c0.1-0.4,0.5-0.7,0.9-0.7h0.6c3.5,0,6.3-1.4,7.1-5.5 c0.3-1.7,0.2-3.1-0.7-4.1C21.3,7,20.7,6.9,20.1,6.9L20.1,6.9z" fill="#009CDE"/>
        <path d="M18.6,6.7c-0.2,0-0.5-0.1-0.7-0.1c-0.8-0.1-1.7-0.1-2.6,0H9.7c-0.1,0-0.2,0-0.3,0.1C9.2,6.8,9,7,9,7.2L7.6,15 c0,0.2,0.1,0.4,0.3,0.4h2.3c0.6,0,1-0.4,1.1-1l0,0l0.9-5.4l0.1-0.3c0.1-0.6,0.6-1,1.1-1h0.7c3.4,0,6.1-1.4,6.8-5.3 c0.1-0.5,0.1-1,0.1-1.4c-0.3-0.2-0.7-0.3-1.1-0.4C19.5,6.7,19.1,6.7,18.6,6.7L18.6,6.7z" fill="#012169"/>
        <path d="M9.4,6.8C9.2,6.8,9,7,9,7.2c0,0.1,0,0.1,0,0.2l-1.4,8.5c0,0.2,0.1,0.4,0.3,0.4h2.3c0.6,0,1-0.4,1.1-1l0,0l0.9-5.4 l0.1-0.3c0.1-0.6,0.6-1,1.1-1h0.7c3.4,0,6.1-1.4,6.8-5.3c0.1-0.5,0.1-1,0.1-1.4c-0.7-0.3-1.5-0.5-2.3-0.6c-0.8-0.1-1.7-0.1-2.6,0 h-5.6C9.6,6.7,9.5,6.7,9.4,6.8L9.4,6.8z" fill="#003087"/>
    </g>
</svg>
